<svg xmlns="http://www.w3.org/2000/svg" width="146.888" height="41.8" viewBox="-24.344 3 146.888 41.8"><g data-name="Style-Guide"><g data-name="Breakpoint---M---1024"><g data-name="Nav"><g data-name="Desktop-Nav-Updated"><g data-name="Group-13"><path d="m105.51 41.374 1.542-3.157c.22-.587.808-.71 1.322-.416 0 0 2.57 1.395 5.188 1.395 1.15 0 1.934-.465 1.934-1.469 0-1.052-.808-1.688-3.818-2.912-4.38-1.737-6.437-4.136-6.437-7.684 0-3.549 2.57-6.877 8.37-6.877 3.353 0 5.825.979 7.024 1.81.514.343.808.98.514 1.567l-1.42 2.961c-.293.514-.905.588-1.37.416 0 0-2.57-1.223-4.723-1.223-1.37 0-1.934.587-1.934 1.346 0 1.052 1.028 1.395 3.133 2.276 4.38 1.737 7.709 3.67 7.709 8.223 0 3.842-3.304 7.097-9.055 7.097-3.769 0-6.388-1.224-7.587-2.154-.391-.27-.636-.734-.391-1.2" fill="#282828" fill-rule="evenodd" data-name="Fill-11"/><path d="M91.536 20.278c6.755 0 12.237 5.604 12.237 12.188 0 6.705-5.482 12.285-12.237 12.285-6.754 0-12.236-5.604-12.236-12.285 0-6.608 5.506-12.188 12.236-12.188m0 18.184c3.157 0 5.727-2.668 5.727-5.996 0-3.255-2.57-5.874-5.727-5.874-3.23 0-5.726 2.619-5.726 5.874 0 3.304 2.52 5.996 5.726 5.996" fill="#282828" fill-rule="evenodd" data-name="Fill-9"/><path d="M37.549 22.016c0-.661.514-1.126 1.101-1.126h2.154c.514 0 .88.294 1.003.66l.808 2.277c.979-1.126 3.67-3.524 7.807-3.524 3.328 0 5.653 1.321 7.586 3.695.98-1.077 4.014-3.695 8.223-3.695 7.464 0 10.205 5.677 10.205 11.942V43.65c0 .587-.465 1.126-1.1 1.126h-4.724c-.636 0-1.101-.539-1.101-1.126V31.83c0-3.109-1.469-5.067-4.381-5.067-3.377 0-4.895 2.497-4.895 2.497s.05 1.199.05 2.276V43.65c0 .587-.515 1.126-1.102 1.126h-4.38c-.637 0-1.102-.539-1.102-1.126V31.83c0-3.109-1.346-5.067-4.307-5.067-2.913 0-4.308 2.154-4.895 3.77v13.141c0 .588-.514 1.126-1.101 1.126h-4.724c-.587 0-1.1-.538-1.1-1.126V22.016h-.025Z" fill="#282828" fill-rule="evenodd" data-name="Fill-7"/><path d="M23.672 20.278c-6.999 0-12.016 5.653-12.016 12.237 0 6.705 5.017 12.236 12.065 12.236 3.818 0 6.828-1.395 8.786-3.206.588-.465.465-1.101.05-1.517l-2.424-2.741c-.416-.465-.954-.343-1.541 0-1.053.759-2.766 1.468-4.601 1.468-3.427 0-5.482-2.667-5.654-5.066h15.076c.538 0 1.052-.416 1.125-.979.05-.416.123-1.174.123-1.566.024-6.314-4.92-10.866-10.989-10.866ZM18.9 29.602c.294-2.227 2.227-3.964 4.601-3.964 2.227 0 4.136 1.81 4.307 3.964H18.9Z" fill="#282828" fill-rule="evenodd" data-name="Fill-5"/><path d="M15.963 12.349v-1.37c0-.441.465-.76 1.126-.76H32.14c.636 0 1.126.319 1.126.76v1.37c0 .416-.465.734-1.126.734H17.09c-.662 0-1.127-.318-1.127-.734" fill="#282828" fill-rule="evenodd" data-name="Fill-3"/><path d="M-24.344 4.126c0-.588.465-1.126 1.028-1.126h13.51c11.012 0 20.018 9.373 20.018 20.802 0 11.576-9.006 20.925-20.019 20.925h-13.509c-.563 0-1.028-.539-1.028-1.126V4.126Zm13.852 33.357c7.415 0 12.824-5.85 12.824-13.656 0-7.758-5.409-13.607-12.824-13.607h-6.485v27.263h6.485Z" fill="#282828" fill-rule="evenodd" data-name="Fill-1"/></g></g></g></g></g></svg>